<svg width="141" height="33" viewBox="0 0 141 33" fill="none" xmlns="http://www.w3.org/2000/svg">
<path fill-rule="evenodd" clip-rule="evenodd" d="M25.4448 2.12969L24.6773 3.23307C29.843 5.27008 31.9093 8.94801 31.9093 12.9089C31.9093 14.8893 31.3484 16.6717 30.2562 16.6717H16.7369C14.9067 16.6717 14.3459 16.0493 15.1724 14.4649C16.6483 11.664 21.076 6.31688 23.8212 3.09161C24.2345 2.61065 24.5592 1.87506 23.1128 1.50727C21.6369 1.13948 19.2754 0.969727 17.2682 0.969727C7.08439 0.998018 0 6.26029 0 13.0786C0 19.3311 6.1398 25.1875 17.2387 25.1875C22.1387 25.1875 28.1604 23.8578 31.555 20.1516H28.6327C25.2972 23.0373 20.9875 23.688 17.2682 23.688C8.32415 23.688 2.65664 19.2179 2.65664 13.0786C2.65664 7.39197 9.06211 2.29944 17.1501 2.29944C18.1242 2.29944 18.4489 2.49748 17.4158 3.71403C15.3495 6.17542 11.6597 11.0699 9.91814 13.9274C8.05849 16.9829 9.94766 19.4726 14.1393 19.4726H31.0827C32.1159 19.4726 32.7358 18.9067 33.3261 17.8599C33.8279 17.0395 34.5659 15.342 34.5659 13.0786C34.5659 8.46705 30.9647 4.22328 25.4448 2.12969ZM135.932 12.1755H124.449C124.833 10.7609 125.954 9.79897 128.109 9.79897H139.09V7.42246H127.401C120.73 7.42246 119.165 11.9491 119.165 14.5237H133.393C135.341 14.5237 135.341 17.0417 133.452 17.0417H117.748V7.42246H113.025V17.0417H105.174C103.078 17.0417 102.192 16.0798 102.192 14.5803V7.42246H94.6061L87.8169 11.5248L81.9722 7.42246H65.1468C60.2763 7.42246 56.8227 10.1385 56.4094 13.5618H59.5679C58.2986 14.354 57.3245 15.6554 56.7636 17.07H46.816C44.9268 17.07 44.0708 16.1363 44.0708 14.3822V7.42246H39.3183V13.3354C39.3183 17.0983 41.4436 19.4465 46.2846 19.4465H79.4337L86.2524 15.3442L92.097 19.4748H99.0928L89.9717 13.0808L97.4103 8.63901V15.4008C97.4103 17.4943 100.244 19.5031 102.812 19.5031H135.932C141.688 19.4748 141.658 12.1755 135.932 12.1755ZM78.5776 17.0983H62.4902C62.6673 15.7968 63.3462 14.5237 65.5601 14.5237H75.5373V12.1755H62.254C62.4902 11.2136 63.5233 9.82726 65.9143 9.82726H76.4523V8.52584L84.0385 13.8164L78.5776 17.0983ZM39.584 27.1404V32.4593H42.8605V31.7803H40.3515V30.1959H42.6539V29.5169H40.3515V27.8194H42.7129V27.1404H39.584ZM48.3215 32.489L47.0817 30.6783C46.9932 30.5368 46.8456 30.3105 46.8456 30.3105C46.8456 30.3105 46.698 30.5368 46.5799 30.7066L45.3401 32.5173H44.4546L46.3733 29.6881L44.6612 27.1701H45.6058L46.6685 28.7545C46.757 28.8676 46.8456 29.0374 46.8456 29.0374L47.0227 28.7545L48.0853 27.1984H48.9709L47.2588 29.6881L49.207 32.5456H48.3215V32.489ZM51.8931 30.3673H52.9558C53.8708 30.3673 54.6383 29.6317 54.6383 28.7829C54.6383 27.8493 53.9299 27.142 52.8082 27.142H51.1256V32.4609H51.8931V30.3673ZM51.9226 27.821H52.7196C53.4281 27.821 53.8413 28.1605 53.8413 28.7263C53.8413 29.3488 53.3985 29.6883 52.7491 29.6883H51.9226V27.821ZM56.6751 32.4608V27.142H59.804V27.821H57.4426V29.5185H59.745V30.1975H57.4426V31.7818H59.9516V32.4608H56.6751ZM63.2281 29.9995L65.4715 32.4891H66.4456L64.3793 30.2541C65.2058 30.2541 65.9733 29.5751 65.9733 28.7263C65.9733 27.8493 65.2944 27.142 64.2613 27.142H62.4606V32.4891H63.2281V29.9995ZM63.1986 27.821H64.1137C64.8221 27.821 65.1763 28.302 65.1763 28.6697C65.1763 29.2639 64.7631 29.66 64.0842 29.66H63.1986V27.821ZM68.571 32.4891V27.142H69.3385V32.4891H68.571ZM72.0246 27.142V32.4608H75.3011V31.7818H72.7921V30.1975H75.0945V29.5185H72.7921V27.821H75.1535V27.142H72.0246ZM81.5295 32.4891L78.6072 28.6132C78.5777 28.5566 78.5187 28.4717 78.5187 28.4717C78.5187 28.4717 78.5482 28.5849 78.5482 28.6415V32.4891H77.7807V27.142H78.4301L81.3229 30.9331C81.3819 30.9897 81.4114 31.0746 81.4114 31.0746C81.4114 31.0746 81.3819 30.9614 81.3819 30.9048V27.142H82.1494V32.4891H81.5295ZM84.1567 29.8013C84.1567 31.4988 85.544 32.5739 86.9019 32.5739C87.876 32.5739 88.673 32.1212 89.1158 31.5554L88.5549 31.1027C88.0826 31.6403 87.4627 31.8383 86.9314 31.8383C86.0754 31.8383 84.9832 31.1593 84.9832 29.773C84.9832 28.5282 85.8687 27.736 86.9609 27.736C87.5513 27.736 88.0531 27.9623 88.4369 28.3301L88.9977 27.8492C88.5549 27.3682 87.935 27.0287 86.9314 27.0287C85.3079 27.0287 84.1567 28.2453 84.1567 29.8013ZM91.0934 32.4608V27.142H94.2224V27.821H91.8609V29.5185H94.1633V30.1975H91.8609V31.7818H94.37V32.4608H91.0934ZM102.045 30.7633L102.724 32.4891H103.58L101.425 27.142H100.923L98.7977 32.4891H99.5947L100.274 30.7633H102.045ZM101.159 28.4151C101.159 28.4151 101.189 28.5 101.218 28.5566L101.779 30.056H100.539L101.13 28.5566C101.13 28.5 101.159 28.4151 101.159 28.4151ZM110.074 32.4891V28.5566C110.074 28.4717 110.103 28.3585 110.103 28.3585C110.103 28.3585 110.044 28.4434 110.015 28.4717L108.273 30.735H107.978L106.207 28.5283C106.177 28.5 106.118 28.4151 106.118 28.4151C106.118 28.4151 106.148 28.5283 106.148 28.6132V32.4891H105.38V27.142H106.03L108.125 29.7448L110.162 27.142H110.841V32.4891H110.074ZM115.889 30.7633L116.568 32.4891H117.424L115.269 27.142H114.767L112.642 32.4891H113.439L114.118 30.7633H115.889ZM114.974 28.4151C114.974 28.4151 115.003 28.5 115.033 28.5566L115.594 30.056H114.354L114.944 28.5566C114.944 28.5 114.974 28.4151 114.974 28.4151ZM120.08 31.6687C120.051 31.7253 119.992 31.7818 119.992 31.7818H120.139H122.944V32.4891H118.664L121.586 27.9907C121.645 27.9342 121.704 27.8493 121.704 27.8493H121.556H119.165V27.142H123.062L120.08 31.6687ZM125.098 27.142V32.4891H125.866V27.142H125.098ZM132.301 32.4891L129.379 28.6132C129.349 28.5566 129.29 28.4717 129.29 28.4717C129.29 28.4717 129.32 28.5849 129.32 28.6415V32.4891H128.552V27.142H129.202L132.094 30.9331C132.153 30.9897 132.183 31.0746 132.183 31.0746C132.183 31.0746 132.153 30.9614 132.153 30.9048V27.142H132.921V32.4891H132.301ZM134.751 29.8013C134.751 31.4705 136.168 32.5739 137.585 32.5739C138.913 32.5739 140.123 31.5271 140.123 30.0842H137.555V30.7632H139.267C139.061 31.4139 138.411 31.8383 137.614 31.8383C136.463 31.8383 135.548 30.8764 135.548 29.8013C135.548 28.5848 136.463 27.7643 137.585 27.7643C138.234 27.7643 138.706 27.934 139.179 28.3018L139.651 27.7643C139.09 27.3116 138.5 27.0287 137.585 27.0287C136.05 27.0287 134.751 28.1604 134.751 29.8013Z" fill="white"/>
</svg>
